<?xml version="1.0" standalone="no"?>
<!DOCTYPE svg PUBLIC "-//W3C//DTD SVG 20010904//EN"
 "http://www.w3.org/TR/2001/REC-SVG-20010904/DTD/svg10.dtd">
<svg version="1.0" xmlns="http://www.w3.org/2000/svg"
 width="2579.000000pt" height="761.000000pt" viewBox="0 0 2579.000000 761.000000"
 preserveAspectRatio="xMidYMid meet">

<g transform="translate(0.000000,761.000000) scale(0.100000,-0.100000)"
fill="#000000" stroke="none">
<path d="M7010 7594 c-19 -2 -100 -11 -179 -20 -469 -51 -795 -134 -2116 -539
-1542 -473 -2851 -790 -4498 -1091 -114 -21 -207 -41 -207 -45 0 -3 51 -55
113 -115 273 -265 586 -404 912 -404 105 0 588 66 1599 219 l459 70 60 -41
c126 -85 313 -142 512 -154 123 -8 182 1 725 107 1270 249 2017 359 2915 428
1413 109 2617 37 3755 -225 l155 -36 84 -81 c212 -208 431 -464 563 -657 36
-52 120 -188 187 -301 245 -411 516 -729 751 -881 41 -26 81 -48 88 -48 50 0
211 118 347 256 183 183 366 430 530 714 189 326 397 592 692 882 l118 116
175 41 c1500 345 3211 358 5275 40 340 -53 821 -139 1330 -239 666 -132 685
-134 881 -105 161 24 312 81 419 156 l40 28 460 -70 c993 -150 1495 -219 1601
-219 259 0 523 94 754 269 107 80 283 252 265 257 -5 2 -147 28 -315 59 -687
126 -1534 304 -2145 452 -779 188 -1402 361 -2344 649 -1191 366 -1490 442
-1974 505 -204 27 -692 37 -914 20 -763 -60 -1139 -170 -2743 -799 -1312 -514
-1557 -592 -2075 -658 -99 -13 -208 -18 -370 -18 -244 0 -387 13 -645 60 -354
65 -667 171 -1748 595 -1383 543 -1794 679 -2286 759 -311 51 -448 62 -816 65
-195 2 -371 1 -390 -1z"/>
<path d="M4820 2854 c-341 -43 -612 -167 -820 -374 -230 -231 -350 -531 -350
-880 0 -627 400 -1105 1032 -1232 148 -30 442 -32 583 -5 196 39 345 97 490
191 81 53 236 191 256 227 7 15 -27 51 -207 214 l-216 196 -61 -62 c-82 -83
-191 -153 -291 -186 -74 -25 -94 -27 -226 -27 -131 0 -153 3 -227 27 -207 69
-352 224 -415 444 -32 112 -32 314 0 426 63 220 208 375 415 444 74 24 96 27
227 27 132 0 152 -2 226 -27 100 -33 209 -103 290 -186 l62 -62 213 192 c118
105 215 194 217 198 5 15 -123 143 -205 205 -147 111 -323 187 -523 227 -93
19 -388 33 -470 23z"/>
<path d="M7478 2849 c-113 -13 -290 -61 -397 -107 -372 -161 -621 -453 -719
-841 -24 -97 -27 -123 -27 -301 0 -178 3 -204 27 -301 65 -256 198 -475 389
-637 503 -429 1345 -429 1848 0 191 162 324 381 389 637 24 97 27 123 27 301
0 178 -3 204 -27 301 -65 256 -198 475 -389 637 -288 245 -698 359 -1121 311z
m366 -579 c208 -53 370 -203 441 -407 59 -170 59 -356 0 -526 -91 -263 -326
-427 -610 -427 -284 0 -519 164 -610 427 -59 170 -59 356 0 526 70 203 232
353 437 407 100 26 241 26 342 0z"/>
<path d="M17698 2849 c-113 -13 -290 -61 -397 -107 -372 -161 -621 -453 -719
-841 -24 -97 -27 -123 -27 -301 0 -178 3 -204 27 -301 65 -256 198 -475 389
-637 503 -429 1345 -429 1848 0 191 162 324 381 389 637 24 97 27 123 27 301
0 178 -3 204 -27 301 -65 256 -198 475 -389 637 -288 245 -698 359 -1121 311z
m366 -579 c208 -53 370 -203 441 -407 59 -170 59 -356 0 -526 -91 -263 -326
-427 -610 -427 -284 0 -519 164 -610 427 -59 170 -59 356 0 526 70 203 232
353 437 407 100 26 241 26 342 0z"/>
<path d="M9552 1603 l3 -1208 923 -3 922 -2 0 270 0 270 -580 0 -580 0 0 940
0 940 -345 0 -345 0 2 -1207z"/>
<path d="M11830 1600 l0 -1210 975 0 975 0 0 265 0 265 -635 0 -635 0 0 220 0
220 540 0 540 0 0 255 0 255 -540 0 -540 0 0 205 0 205 610 0 610 0 0 265 0
265 -950 0 -950 0 0 -1210z"/>
<path d="M14110 2540 l0 -270 370 0 370 0 0 -940 0 -940 345 0 345 0 0 940 0
940 370 0 370 0 0 270 0 270 -1085 0 -1085 0 0 -270z"/>
<path d="M19770 1600 l0 -1210 345 0 345 0 0 320 0 320 188 0 187 0 220 -320
219 -320 368 0 367 0 -178 257 c-368 535 -344 497 -325 508 266 156 393 330
440 597 21 118 14 290 -16 403 -42 164 -143 321 -273 425 -79 64 -237 142
-351 175 -174 50 -265 55 -927 55 l-609 0 0 -1210z m1211 656 c90 -19 159 -56
207 -111 54 -61 76 -129 76 -230 0 -186 -95 -301 -283 -341 -45 -9 -137 -14
-293 -14 l-228 0 0 355 0 355 228 0 c156 0 248 -5 293 -14z"/>
</g>
</svg>
