<?xml version="1.0" encoding="utf-8"?>
<!-- Svg Vector Icons : http://www.onlinewebfonts.com/icon -->
<!DOCTYPE svg PUBLIC "-//W3C//DTD SVG 1.1//EN" "http://www.w3.org/Graphics/SVG/1.1/DTD/svg11.dtd">
<svg version="1.1" xmlns="http://www.w3.org/2000/svg" xmlns:xlink="http://www.w3.org/1999/xlink" x="0px" y="0px" viewBox="0 0 1000 1000" enable-background="new 0 0 1000 1000" xml:space="preserve">
<metadata> Svg Vector Icons : http://www.onlinewebfonts.com/icon </metadata>
<g><path d="M500,686c-102.6,0-186-83.5-186-186.1c0-102.6,83.5-186,186-186s186.1,83.5,186.1,186C686.1,602.5,602.6,686,500,686z M500,372.2c-70.4,0-127.7,57.3-127.7,127.7c0,70.4,57.3,127.7,127.7,127.7c70.4,0,127.7-57.3,127.7-127.7S570.4,372.2,500,372.2z"/><path d="M500,791.1c-265.7,0-475-262-483.8-273.2c-10-12.6-7.8-31,4.9-40.9c12.7-10,31-7.8,41,4.8c2,2.5,200.9,250.9,438,250.9c237,0,435.9-248.4,437.9-250.9c10-12.6,28.3-14.8,41-4.8c12.6,10,14.8,28.3,4.9,40.9C975,529.1,765.6,791.1,500,791.1z"/><path d="M960.9,529.1c-8.6,0-17.2-3.8-22.9-11.1c-2-2.5-200.8-250.8-437.9-250.8c-237.1,0-436,248.3-438,250.8c-10,12.6-28.3,14.8-41,4.8c-12.6-10-14.8-28.3-4.9-40.9C25,470.8,234.4,208.9,500,208.9c265.6,0,474.9,261.9,483.7,273.1c10,12.6,7.8,31-4.8,40.9C973.5,527.1,967.2,529.1,960.9,529.1z"/></g>
</svg>